<svg width="144" height="144" viewBox="0 0 144 144" fill="none" xmlns="http://www.w3.org/2000/svg">
<g clip-path="url(#clip0_24210_278297)">
<path d="M144 0H0V144H144V0Z" fill="#161D26"/>
<path d="M34.7037 0V27.9225H109.296V0H116.077V27.9225H144V34.7037H116.077V109.296H144V116.077H116.077V144H109.296V116.077H34.7037V144H27.9225V116.077H0V109.296H27.9225V34.7037H0V27.9225H27.9225V0H34.7037ZM34.7037 109.296H109.296V34.7037H34.7037V109.296Z" fill="#DEDEE3" fill-opacity="0.2"/>
<mask id="mask0_24210_278297" style="mask-type:alpha" maskUnits="userSpaceOnUse" x="34" y="34" width="76" height="76">
<path d="M109.295 34.7026H34.7024V109.295H109.295V34.7026Z" fill="#D9D9D9"/>
</mask>
<g mask="url(#mask0_24210_278297)">
<path d="M110.271 26.6228H22.0542V112.245H110.271V26.6228Z" fill="url(#paint0_linear_24210_278297)"/>
<path d="M110.271 26.6228H22.0542V112.245H110.271V26.6228Z" fill="url(#paint1_radial_24210_278297)"/>
<path d="M110.271 26.6228H22.0542V112.245H110.271V26.6228Z" fill="url(#paint2_radial_24210_278297)"/>
<path d="M110.271 26.6228H22.0542V112.245H110.271V26.6228Z" fill="url(#paint3_radial_24210_278297)"/>
<path d="M110.271 26.6228H22.0542V112.245H110.271V26.6228Z" fill="url(#paint4_radial_24210_278297)"/>
</g>
</g>
<defs>
<linearGradient id="paint0_linear_24210_278297" x1="22.0542" y1="112.245" x2="127.041" y2="77.9231" gradientUnits="userSpaceOnUse">
<stop offset="0.254808" stop-color="#F2ADE5"/>
<stop offset="0.625" stop-color="#ED24E7"/>
</linearGradient>
<radialGradient id="paint1_radial_24210_278297" cx="0" cy="0" r="1" gradientUnits="userSpaceOnUse" gradientTransform="translate(29.8709 33.838) rotate(75.0051) scale(32.3687 973.27)">
<stop stop-color="#BF88F4"/>
<stop offset="1" stop-color="#BF88F4" stop-opacity="0"/>
</radialGradient>
<radialGradient id="paint2_radial_24210_278297" cx="0" cy="0" r="1" gradientUnits="userSpaceOnUse" gradientTransform="translate(110.27 112.245) rotate(-90) scale(77.9253 72.3332)">
<stop offset="0.177885" stop-color="#6F6CFA"/>
<stop offset="0.769231" stop-color="#6F6CFA" stop-opacity="0"/>
</radialGradient>
<radialGradient id="paint3_radial_24210_278297" cx="0" cy="0" r="1" gradientUnits="userSpaceOnUse" gradientTransform="translate(60.5791 77.1298) rotate(-100.521) scale(48.9247 53.8589)">
<stop offset="0.206731" stop-color="#FE96CE"/>
<stop offset="1" stop-color="#FE96CE" stop-opacity="0"/>
</radialGradient>
<radialGradient id="paint4_radial_24210_278297" cx="0" cy="0" r="1" gradientUnits="userSpaceOnUse" gradientTransform="translate(43.2708 112.245) rotate(-58.0843) scale(69.7026 27.6635)">
<stop stop-color="#EFE0F0"/>
<stop offset="1" stop-color="#EFE0F0" stop-opacity="0"/>
</radialGradient>
<clipPath id="clip0_24210_278297">
<rect width="144" height="144" fill="white"/>
</clipPath>
</defs>
</svg>
